<svg xmlns="http://www.w3.org/2000/svg" xmlns:xlink="http://www.w3.org/1999/xlink" width="973.987" height="826.504" viewBox="0 0 973.987 826.504">
  <defs>
    <linearGradient id="linear-gradient" x1="0.5" y1="1" x2="0.5" gradientUnits="objectBoundingBox">
      <stop offset="0" stop-color="gray" stop-opacity="0.251"/>
      <stop offset="0.54" stop-color="gray" stop-opacity="0.122"/>
      <stop offset="1" stop-color="gray" stop-opacity="0.102"/>
    </linearGradient>
    <linearGradient id="linear-gradient-2" x1="0.5" y1="1" x2="0.5" y2="0" xlink:href="#linear-gradient"/>
    <linearGradient id="linear-gradient-4" x1="0.5" y1="1" x2="0.5" y2="0" xlink:href="#linear-gradient"/>
    <linearGradient id="linear-gradient-5" x1="0.5" y1="1" x2="0.5" y2="0" xlink:href="#linear-gradient"/>
    <linearGradient id="linear-gradient-6" x1="0.5" y1="0.999" x2="0.5" y2="0" xlink:href="#linear-gradient"/>
    <linearGradient id="linear-gradient-8" x1="0.5" y1="1" x2="0.5" y2="0" xlink:href="#linear-gradient"/>
    <linearGradient id="linear-gradient-9" x1="0.5" y1="1" x2="0.5" y2="0" xlink:href="#linear-gradient"/>
    <linearGradient id="linear-gradient-11" x1="0.499" y1="1" x2="0.499" y2="0" xlink:href="#linear-gradient"/>
    <linearGradient id="linear-gradient-12" x1="0.5" y1="1" x2="0.5" y2="0" xlink:href="#linear-gradient"/>
    <linearGradient id="linear-gradient-14" x1="0.499" y1="0.996" x2="0.499" y2="0" xlink:href="#linear-gradient"/>
    <linearGradient id="linear-gradient-15" x1="0.5" y1="1" x2="0.5" y2="0" xlink:href="#linear-gradient"/>
    <linearGradient id="linear-gradient-16" x1="0.5" y1="1" x2="0.5" y2="0" xlink:href="#linear-gradient"/>
    <linearGradient id="linear-gradient-18" x1="0.499" y1="1" x2="0.499" y2="0" xlink:href="#linear-gradient"/>
    <linearGradient id="linear-gradient-19" x1="0.5" y1="1" x2="0.5" y2="0" xlink:href="#linear-gradient"/>
    <linearGradient id="linear-gradient-20" x1="0.5" y1="0.999" x2="0.5" y2="0" xlink:href="#linear-gradient"/>
    <linearGradient id="linear-gradient-21" x1="0.5" y1="1" x2="0.5" y2="0" xlink:href="#linear-gradient"/>
    <linearGradient id="linear-gradient-22" x1="0.5" y1="1" x2="0.5" y2="0" xlink:href="#linear-gradient"/>
  </defs>
  <g id="Group_6" data-name="Group 6" transform="translate(-5 -154)">
    <path id="Path_1" data-name="Path 1" d="M1084.8,176.93c-4.86,29.85-15.92,58.41-20.67,88.27-3.79,23.85-3.54,48.47-10.61,71.57-7.14,23.36-21.44,44.06-28.42,67.44-.16.53-.32,1.07-.47,1.6a125.206,125.206,0,0,0-3.71,18.8q-.39,3.16-.65,6.32c-1.81,22,.71,44.63,1.49,66.87,1.08,30.81-2.27,64.2-22.63,87.35-14.22,16.16-34.76,25-54.6,33.4-30,12.66-60.45,25.44-92.72,29.79-60.48,8.14-122.94-13.92-182.39-.2-49.82,11.5-91,46.72-139.67,62.41-49.27,15.89-102.8,10.7-153.62.9-93.32-18-188.71-54.61-246.61-130-7.64-9.95-14.75-21-16.21-33.46-1.08-9.13,1-18.31,3-27.27,9-40,18.75-81.52,44.68-113.22,22.33-27.29,55.63-45.89,71.12-77.57,20.28-41.47,3.63-91-16-132.73-4.73-10-9.71-20.29-10.71-31.35C203.47,145,216.53,125,233.6,112.81S271.34,94.72,291.54,89C327.45,79,368.61,72.56,402,55.87c32.59-16.3,58.55-21.24,96-18.34A969.24,969.24,0,0,1,661.4,64.4c56.8,14.45,115.48,34.2,172.81,21.78,22.86-5,44.34-14.87,66.94-20.89,18.9-5,38.43-7.31,58-8.42,39.57-2.23,84.41,2.74,109.3,33.59C1087.39,114,1089.67,147.1,1084.8,176.93Z" transform="translate(-108.014 117.254)" fill="#6c63ff"/>
    <path id="Path_2" data-name="Path 2" d="M654.2,844.89s-27.2-92.4,5.1-160.41c13.56-28.55,18.07-60.59,11.8-91.56a245.462,245.462,0,0,0-13-43" transform="translate(-108.014 117.254)" fill="none" stroke="#535461" stroke-miterlimit="10" stroke-width="2"/>
    <path id="Path_3" data-name="Path 3" d="M678.26,507c0,11.32-20.51,44.17-20.51,44.17s-20.5-32.89-20.5-44.17a20.51,20.51,0,0,1,41,0Z" transform="translate(-108.014 117.254)" fill="#6c63ff"/>
    <path id="Path_4" data-name="Path 4" d="M712.15,569.68c-6.15,9.51-41.22,25.93-41.22,25.93s.64-38.71,6.79-48.22a20.51,20.51,0,1,1,34.42,22.29Z" transform="translate(-108.014 117.254)" fill="#6c63ff"/>
    <path id="Path_5" data-name="Path 5" d="M710.67,676.88C700.56,682,662,678.46,662,678.46s20.09-33.1,30.2-38.19a20.51,20.51,0,0,1,18.46,36.62Z" transform="translate(-108.014 117.254)" fill="#6c63ff"/>
    <path id="Path_6" data-name="Path 6" d="M691.28,757.73c-9.1,6.73-47.7,9.78-47.7,9.78s14.21-36,23.31-42.75a20.518,20.518,0,1,1,24.39,33Z" transform="translate(-108.014 117.254)" fill="#6c63ff"/>
    <path id="Path_7" data-name="Path 7" d="M627.88,597.8c8.12,7.89,46,16.07,46,16.07s-9.27-37.59-17.39-45.48a20.509,20.509,0,1,0-28.581,29.421Z" transform="translate(-108.014 117.254)" fill="#6c63ff"/>
    <path id="Path_8" data-name="Path 8" d="M606.41,692.65c10.11,5.1,48.67,1.58,48.67,1.58S635,661.13,624.87,656a20.51,20.51,0,1,0-18.46,36.62Z" transform="translate(-108.014 117.254)" fill="#6c63ff"/>
    <path id="Path_9" data-name="Path 9" d="M598.19,787.7c9.1,6.73,47.7,9.78,47.7,9.78s-14.21-36-23.31-42.75a20.518,20.518,0,0,0-24.39,33Z" transform="translate(-108.014 117.254)" fill="#6c63ff"/>
    <path id="Path_10" data-name="Path 10" d="M678.26,507c0,11.32-20.51,44.17-20.51,44.17s-20.5-32.89-20.5-44.17a20.51,20.51,0,0,1,41,0Z" transform="translate(-108.014 117.254)" opacity="0.25"/>
    <path id="Path_11" data-name="Path 11" d="M712.15,569.68c-6.15,9.51-41.22,25.93-41.22,25.93s.64-38.71,6.79-48.22a20.51,20.51,0,1,1,34.42,22.29Z" transform="translate(-108.014 117.254)" opacity="0.25"/>
    <path id="Path_12" data-name="Path 12" d="M710.67,676.88C700.56,682,662,678.46,662,678.46s20.09-33.1,30.2-38.19a20.51,20.51,0,0,1,18.46,36.62Z" transform="translate(-108.014 117.254)" opacity="0.25"/>
    <path id="Path_13" data-name="Path 13" d="M691.28,757.73c-9.1,6.73-47.7,9.78-47.7,9.78s14.21-36,23.31-42.75a20.518,20.518,0,1,1,24.39,33Z" transform="translate(-108.014 117.254)" opacity="0.25"/>
    <path id="Path_14" data-name="Path 14" d="M627.88,597.8c8.12,7.89,46,16.07,46,16.07s-9.27-37.59-17.39-45.48a20.509,20.509,0,1,0-28.581,29.421Z" transform="translate(-108.014 117.254)" opacity="0.25"/>
    <path id="Path_15" data-name="Path 15" d="M606.41,692.65c10.11,5.1,48.67,1.58,48.67,1.58S635,661.13,624.87,656a20.51,20.51,0,1,0-18.46,36.62Z" transform="translate(-108.014 117.254)" opacity="0.25"/>
    <path id="Path_16" data-name="Path 16" d="M598.19,787.7c9.1,6.73,47.7,9.78,47.7,9.78s-14.21-36-23.31-42.75a20.518,20.518,0,0,0-24.39,33Z" transform="translate(-108.014 117.254)" opacity="0.25"/>
    <path id="Path_17" data-name="Path 17" d="M259,735.37s-27.22-92.41,5.1-160.42c13.56-28.55,18.07-60.59,11.8-91.56a245.46,245.46,0,0,0-13-43" transform="translate(-108.014 117.254)" fill="none" stroke="#535461" stroke-miterlimit="10" stroke-width="2"/>
    <path id="Path_18" data-name="Path 18" d="M283.09,397.43c0,11.32-20.51,44.17-20.51,44.17s-20.51-32.84-20.51-44.17a20.51,20.51,0,0,1,41,0Z" transform="translate(-108.014 117.254)" fill="#6c63ff"/>
    <path id="Path_19" data-name="Path 19" d="M317,460.16c-6.15,9.51-41.22,25.93-41.22,25.93s.64-38.71,6.79-48.22A20.509,20.509,0,1,1,317,460.161Z" transform="translate(-108.014 117.254)" fill="#6c63ff"/>
    <path id="Path_20" data-name="Path 20" d="M315.51,567.35c-10.11,5.1-48.67,1.58-48.67,1.58s20.09-33.1,30.2-38.19a20.51,20.51,0,1,1,18.46,36.62Z" transform="translate(-108.014 117.254)" fill="#6c63ff"/>
    <path id="Path_21" data-name="Path 21" d="M296.12,648.21c-9.1,6.73-47.7,9.78-47.7,9.78s14.21-36,23.31-42.75a20.518,20.518,0,0,1,24.39,33Z" transform="translate(-108.014 117.254)" fill="#6c63ff"/>
    <path id="Path_22" data-name="Path 22" d="M232.72,488.28c8.12,7.89,46,16.07,46,16.07s-9.27-37.59-17.39-45.48a20.509,20.509,0,1,0-28.581,29.421Z" transform="translate(-108.014 117.254)" fill="#6c63ff"/>
    <path id="Path_23" data-name="Path 23" d="M211.25,583.13c10.11,5.1,48.67,1.58,48.67,1.58s-20.09-33.1-30.2-38.19a20.51,20.51,0,1,0-18.46,36.62Z" transform="translate(-108.014 117.254)" fill="#6c63ff"/>
    <path id="Path_24" data-name="Path 24" d="M203,678.18c9.1,6.73,47.7,9.78,47.7,9.78s-14.21-36-23.31-42.75a20.518,20.518,0,1,0-24.39,33Z" transform="translate(-108.014 117.254)" fill="#6c63ff"/>
    <path id="Path_25" data-name="Path 25" d="M283.09,397.43c0,11.32-20.51,44.17-20.51,44.17s-20.51-32.84-20.51-44.17a20.51,20.51,0,0,1,41,0Z" transform="translate(-108.014 117.254)" opacity="0.25"/>
    <path id="Path_26" data-name="Path 26" d="M317,460.16c-6.15,9.51-41.22,25.93-41.22,25.93s.64-38.71,6.79-48.22A20.509,20.509,0,1,1,317,460.161Z" transform="translate(-108.014 117.254)" opacity="0.25"/>
    <path id="Path_27" data-name="Path 27" d="M315.51,567.35c-10.11,5.1-48.67,1.58-48.67,1.58s20.09-33.1,30.2-38.19a20.51,20.51,0,1,1,18.46,36.62Z" transform="translate(-108.014 117.254)" opacity="0.25"/>
    <path id="Path_28" data-name="Path 28" d="M296.12,648.21c-9.1,6.73-47.7,9.78-47.7,9.78s14.21-36,23.31-42.75a20.518,20.518,0,0,1,24.39,33Z" transform="translate(-108.014 117.254)" opacity="0.25"/>
    <path id="Path_29" data-name="Path 29" d="M232.72,488.28c8.12,7.89,46,16.07,46,16.07s-9.27-37.59-17.39-45.48a20.509,20.509,0,1,0-28.581,29.421Z" transform="translate(-108.014 117.254)" opacity="0.25"/>
    <path id="Path_30" data-name="Path 30" d="M211.25,583.13c10.11,5.1,48.67,1.58,48.67,1.58s-20.09-33.1-30.2-38.19a20.51,20.51,0,1,0-18.46,36.62Z" transform="translate(-108.014 117.254)" opacity="0.25"/>
    <path id="Path_31" data-name="Path 31" d="M203,678.18c9.1,6.73,47.7,9.78,47.7,9.78s-14.21-36-23.31-42.75a20.518,20.518,0,1,0-24.39,33Z" transform="translate(-108.014 117.254)" opacity="0.25"/>
    <path id="Path_32" data-name="Path 32" d="M360.37,764.14s-14.73-50,2.76-86.85a79,79,0,0,0,6.39-49.57,132.889,132.889,0,0,0-7-23.27" transform="translate(-108.014 117.254)" fill="none" stroke="#535461" stroke-miterlimit="10" stroke-width="2"/>
    <path id="Path_33" data-name="Path 33" d="M373.39,581.18c0,6.13-11.1,23.91-11.1,23.91s-11.1-17.78-11.1-23.91a11.1,11.1,0,0,1,22.2,0Z" transform="translate(-108.014 117.254)" fill="#6c63ff"/>
    <path id="Path_34" data-name="Path 34" d="M391.74,615.14c-3.33,5.15-22.31,14-22.31,14s.34-21,3.68-26.1a11.1,11.1,0,1,1,18.64,12.07Z" transform="translate(-108.014 117.254)" fill="#6c63ff"/>
    <path id="Path_35" data-name="Path 35" d="M390.94,673.18c-5.47,2.76-26.35.85-26.35.85s10.88-17.92,16.35-20.68a11.1,11.1,0,1,1,10,19.83Z" transform="translate(-108.014 117.254)" fill="#6c63ff"/>
    <path id="Path_36" data-name="Path 36" d="M380.45,717c-4.93,3.65-25.83,5.29-25.83,5.29s7.69-19.5,12.62-23.14A11.1,11.1,0,0,1,380.45,717Z" transform="translate(-108.014 117.254)" fill="#6c63ff"/>
    <path id="Path_37" data-name="Path 37" d="M346.12,630.37c4.4,4.27,24.89,8.7,24.89,8.7s-5-20.35-9.42-24.62a11.1,11.1,0,0,0-15.47,15.93Z" transform="translate(-108.014 117.254)" fill="#6c63ff"/>
    <path id="Path_38" data-name="Path 38" d="M334.5,681.72c5.47,2.76,26.35.85,26.35.85S350,664.65,344.49,661.89a11.1,11.1,0,1,0-10,19.83Z" transform="translate(-108.014 117.254)" fill="#6c63ff"/>
    <path id="Path_39" data-name="Path 39" d="M330,733.18c4.93,3.65,25.83,5.29,25.83,5.29s-7.69-19.5-12.62-23.14A11.1,11.1,0,0,0,330,733.18Z" transform="translate(-108.014 117.254)" fill="#6c63ff"/>
    <path id="Path_40" data-name="Path 40" d="M373.39,581.18c0,6.13-11.1,23.91-11.1,23.91s-11.1-17.78-11.1-23.91a11.1,11.1,0,0,1,22.2,0Z" transform="translate(-108.014 117.254)" fill="#fff" opacity="0.5"/>
    <path id="Path_41" data-name="Path 41" d="M391.74,615.14c-3.33,5.15-22.31,14-22.31,14s.34-21,3.68-26.1a11.1,11.1,0,1,1,18.64,12.07Z" transform="translate(-108.014 117.254)" fill="#fff" opacity="0.5"/>
    <path id="Path_42" data-name="Path 42" d="M390.94,673.18c-5.47,2.76-26.35.85-26.35.85s10.88-17.92,16.35-20.68a11.1,11.1,0,1,1,10,19.83Z" transform="translate(-108.014 117.254)" fill="#fff" opacity="0.5"/>
    <path id="Path_43" data-name="Path 43" d="M380.45,717c-4.93,3.65-25.83,5.29-25.83,5.29s7.69-19.5,12.62-23.14A11.1,11.1,0,0,1,380.45,717Z" transform="translate(-108.014 117.254)" fill="#fff" opacity="0.5"/>
    <path id="Path_44" data-name="Path 44" d="M346.12,630.37c4.4,4.27,24.89,8.7,24.89,8.7s-5-20.35-9.42-24.62a11.1,11.1,0,0,0-15.47,15.93Z" transform="translate(-108.014 117.254)" fill="#fff" opacity="0.5"/>
    <path id="Path_45" data-name="Path 45" d="M334.5,681.72c5.47,2.76,26.35.85,26.35.85S350,664.65,344.49,661.89a11.1,11.1,0,1,0-10,19.83Z" transform="translate(-108.014 117.254)" fill="#fff" opacity="0.5"/>
    <path id="Path_46" data-name="Path 46" d="M330,733.18c4.93,3.65,25.83,5.29,25.83,5.29s-7.69-19.5-12.62-23.14A11.1,11.1,0,0,0,330,733.18Z" transform="translate(-108.014 117.254)" fill="#fff" opacity="0.5"/>
    <path id="Path_47" data-name="Path 47" d="M193.16,470.72a1.5,1.5,0,1,0-1.5-1.5,1.5,1.5,0,0,0,1.5,1.5Z" transform="translate(-108.014 117.254)" fill="#72351c"/>
    <path id="Path_48" data-name="Path 48" d="M470.57,148l10.93,20.83c2.28,4.34,4.59,8.78,5,13.49.56,5.81-1.74,11.61-1.19,17.42.51,5.34,3.39,10.34,6.74,15,20.8,28.7,62.51,46.52,103.45,44.2-15.48,6.54-33.17,8.53-50.47,10.41-8.36.91-16.88,1.82-25.19.67-7.61-1-14.7-3.77-21.46-6.79-13.38-6-26.1-13.37-35.24-23.3S448.8,217.21,451.42,205c.92-4.29,2.77-8.43,3.52-12.74,1.13-6.52-.28-13.23,1.28-19.68,1.36-5.61,4.89-10.73,6.47-16.3,1.43-5-3.43-12.24.2-16C466.8,141.2,469,145,470.57,148Z" transform="translate(-108.014 117.254)" fill="url(#linear-gradient)"/>
    <path id="Path_49" data-name="Path 49" d="M353.72,486.65l56.15-75L401,323.17l124.58-10.05-.46-17.83,27.58,58.66,83.73,79.81.58.83L656.2,425l-73-88.33L548.76,278l-.08-.27c-8.56-27.55-34.08-46.81-63.55-48-7.32-.29-13.61-.82-16.16-1.76-7.88-2.88-3.94-31.73-3.94-31.73L411.84,202a257.79,257.79,0,0,1,8.6,24.36,32,32,0,0,1-14.8,36.45c-16.22,9.56-48.89,26.11-44.52,42.57,6.9,26,14.28,87,14.28,87l-32.51,91.35" transform="translate(-108.014 117.254)" fill="url(#linear-gradient-2)"/>
    <path id="Path_50" data-name="Path 50" d="M342.88,483.76s-44.33,41.35-25.61,41.35,36.45-38.46,36.45-38.46" transform="translate(-108.014 117.254)" fill="url(#linear-gradient-2)"/>
    <path id="Path_51" data-name="Path 51" d="M657.11,426.07l-.91-1.1L637,434.58c3.8,5.31,25.29,34.41,37.83,30.91C688.64,461.65,657.11,426.07,657.11,426.07Z" transform="translate(-108.014 117.254)" fill="url(#linear-gradient-4)"/>
    <path id="Path_52" data-name="Path 52" d="M510.34,711.67s9.85,49-4.93,60.58-23.64,8.65-23.64,8.65V714.55Z" transform="translate(-108.014 117.254)" fill="url(#linear-gradient-5)"/>
    <path id="Path_53" data-name="Path 53" d="M324.54,515.52s-18.11,21.14-11.21,25.95S336,543.38,337,554s35.46,7.69,35.46,7.69,37.43,23.08,69,17.31S531,565.5,531,565.5l31.52-1S588.16,552,593.09,554s23.64-14.42,16.75-26S324.54,515.52,324.54,515.52Z" transform="translate(-108.014 117.254)" fill="url(#linear-gradient-6)"/>
    <g id="Group_1" data-name="Group 1" transform="translate(4.986 154.004)" opacity="0.2">
      <path id="Path_54" data-name="Path 54" d="M324.54,515.52s-18.11,21.14-11.21,25.95S336,543.38,337,554s35.46,7.69,35.46,7.69,37.43,23.08,69,17.31S531,565.5,531,565.5l31.52-1S588.16,552,593.09,554s23.64-14.42,16.75-26S324.54,515.52,324.54,515.52Z" transform="translate(-113 -36.75)" fill="url(#linear-gradient-6)"/>
    </g>
    <path id="Path_55" data-name="Path 55" d="M537.92,547.23l-13.79,87.51s10.84,23.08-10.84,57.7l-3.94,19.23-26.6,2.88L472.91,520.3Z" transform="translate(-108.014 117.254)" fill="url(#linear-gradient-8)"/>
    <g id="Group_2" data-name="Group 2" transform="translate(4.986 154.004)" opacity="0.1">
      <path id="Path_56" data-name="Path 56" d="M412.82,534.73,440.4,604s4.93,28.85,3,34.62-4.93,61.54,5.91,78.85,25.61,82.7,25.61,82.7l29.55-2.88S493.59,779,493.59,767.44V712.63s0-37.5-6.9-64.43l2.63-18a51.371,51.371,0,0,0-.5-17.76l-17.89-87.33Z" transform="translate(-113 -36.75)" fill="url(#linear-gradient-9)"/>
    </g>
    <path id="Path_57" data-name="Path 57" d="M410.85,534.73,438.43,604s4.93,28.85,3,34.62-4.93,61.54,5.91,78.85,25.61,82.7,25.61,82.7l29.55-2.88S491.62,779,491.62,767.44V712.63s0-37.5-6.9-64.43l2.63-18a51.37,51.37,0,0,0-.5-17.76L469,525.11Z" transform="translate(-108.014 117.254)" fill="url(#linear-gradient-9)"/>
    <path id="Path_58" data-name="Path 58" d="M472.91,800.14s5.91,17.31,0,22.12S469,858.8,469,858.8s36.45,14.42,41.37-8.65c0,0-9.85-43.27-7.88-52.89Z" transform="translate(-108.014 117.254)" fill="url(#linear-gradient-11)"/>
    <g id="Group_3" data-name="Group 3" transform="translate(4.986 154.004)" opacity="0.1">
      <path id="Path_59" data-name="Path 59" d="M451.24,311.63s48.27-32.7,73.88,0c0,0,5.91,40.39,0,48.08,0,0-4.93,31.73,3,36.54s13.79,20.19,13.79,20.19,28.57,12.5,32.51,21.16,45.31,95.2,45.31,95.2-55.16,28.85-74.86,26-63,0-63,0-23.64-25-66-13.46S317.27,527,317.27,527L404,412.6s14.78-19.23,7.88-41.35S404,319.33,404,319.33,406.91,296.25,451.24,311.63Z" transform="translate(-113 -36.75)" fill="url(#linear-gradient-12)"/>
    </g>
    <path id="Path_60" data-name="Path 60" d="M451.24,309.71s48.27-32.7,73.88,0c0,0,5.91,40.39,0,48.08,0,0-4.93,31.73,3,36.54s13.79,20.19,13.79,20.19,28.57,12.5,32.51,21.16,45.31,95.2,45.31,95.2-55.16,28.85-74.86,26-63,0-63,0-23.64-25-66-13.46-98.51-18.27-98.51-18.27L404,410.68s14.78-19.23,7.88-41.35S404,317.4,404,317.4,406.91,294.32,451.24,309.71Z" transform="translate(-108.014 117.254)" fill="url(#linear-gradient-9)"/>
    <path id="Path_61" data-name="Path 61" d="M475.38,233.16S507.07,230.59,515,241" transform="translate(-108.014 117.254)" opacity="0.1" fill="url(#linear-gradient-14)"/>
    <path id="Path_62" data-name="Path 62" d="M392.86,277.73s23-21.44,35.82-18.21" transform="translate(-108.014 117.254)" opacity="0.1" fill="url(#linear-gradient-15)"/>
    <g id="Group_4" data-name="Group 4" transform="translate(4.986 154.004)" opacity="0.1">
      <path id="Path_63" data-name="Path 63" d="M414.79,202s2,4.86,4.46,11.65a41.15,41.15,0,0,0,47.87,1.68,115.226,115.226,0,0,1,.86-19.09Z" transform="translate(-113 -36.75)" fill="url(#linear-gradient-16)"/>
    </g>
    <ellipse id="Ellipse_1" data-name="Ellipse 1" cx="40.39" cy="39.43" rx="40.39" ry="39.43" transform="translate(292.986 260.594)" fill="url(#linear-gradient-15)"/>
    <g id="Group_5" data-name="Group 5" transform="translate(4.986 154.004)" opacity="0.1">
      <path id="Path_64" data-name="Path 64" d="M483,150.75c-2.11-7.17-5.67-20.5-13.12-22.16a35.116,35.116,0,0,1-4.8-1.07c-3-1.14-5.11-3.83-7.61-5.85-5.56-4.48-15.09,1.17-22.26.45-6.73-.68-13.79-1.14-20,1.38-12.53,5-17.3,19.65-26.3,29.54-6.74,7.4-15.91,12.15-24.43,17.51s-16.93,11.95-20.58,21.18c-2.58,6.53-2.52,13.76-1.9,20.74a142.24,142.24,0,0,0,16.45,54.75c2.62,4.86,5.56,9.66,6.85,15s.65,11.5-3.21,15.5c-5.44,5.65-14.69,5-22,8,6.07,6.06,15.1,8.73,23.77,8.37s17-3.52,24.53-7.74c19.4-10.87,34.09-29,42.1-49.37,3.72-9.47,6.08-19.86,3.81-29.77-1.95-8.5-7.11-15.9-11.45-23.51s-8-16.2-6.65-24.81c1.26-7.75,6.62-14.47,13.27-18.89,5.5-3.66,15.24-8.65,22.17-8.36C459.31,151.94,485.07,157.93,483,150.75Z" transform="translate(-113 -36.75)" fill="url(#linear-gradient-18)"/>
    </g>
    <path id="Path_65" data-name="Path 65" d="M482,149.79c-2.11-7.17-5.67-20.5-13.12-22.16a35.121,35.121,0,0,1-4.8-1.07c-3-1.14-5.11-3.83-7.61-5.85-5.56-4.48-15.09,1.17-22.26.45-6.73-.68-13.79-1.14-20,1.38-12.53,5-17.3,19.65-26.3,29.54-6.74,7.4-15.91,12.15-24.43,17.51s-16.93,11.95-20.58,21.18c-2.58,6.53-2.52,13.76-1.9,20.74a142.24,142.24,0,0,0,16.45,54.75c2.62,4.86,5.56,9.66,6.85,15s.65,11.5-3.21,15.5c-5.44,5.65-14.69,5-22,8,6.07,6.06,15.1,8.73,23.77,8.37s17-3.52,24.53-7.74c19.4-10.87,34.09-29,42.1-49.37,3.72-9.47,6.08-19.86,3.81-29.77-1.95-8.5-7.11-15.9-11.45-23.51s-8-16.2-6.65-24.81c1.26-7.75,6.62-14.47,13.27-18.89,5.5-3.66,15.24-8.65,22.17-8.36C458.32,151,484.09,157,482,149.79Z" transform="translate(-108.014 117.254)" fill="url(#linear-gradient-19)"/>
    <path id="Path_66" data-name="Path 66" d="M522.65,393.85s-18.72,11.54-40.39,9.62" transform="translate(-108.014 117.254)" opacity="0.1" fill="url(#linear-gradient-20)"/>
    <path id="Path_67" data-name="Path 67" d="M542.35,412.12s-48.27,18.27-67,16.35" transform="translate(-108.014 117.254)" opacity="0.1" fill="url(#linear-gradient-21)"/>
    <path id="Path_68" data-name="Path 68" d="M414.3,365s52.21,4.81,61.07-4.81c0,0,28.57,8.65,47.28,0" transform="translate(-108.014 117.254)" opacity="0.1" fill="url(#linear-gradient-22)"/>
    <path id="Path_69" data-name="Path 69" d="M471.81,156.67l10.38,20.25c2.16,4.22,4.36,8.54,4.79,13.12.54,5.65-1.65,11.29-1.13,16.94.48,5.19,3.22,10.06,6.4,14.55,19.75,27.91,59.33,45.24,98.2,43-14.69,6.36-31.49,8.29-47.91,10.12-7.94.88-16,1.77-23.91.65-7.22-1-14-3.67-20.37-6.6-12.7-5.81-24.78-13-33.45-22.66s-13.65-22-11.17-33.9c.87-4.17,2.63-8.2,3.34-12.39,1.08-6.34-.27-12.86,1.22-19.14,1.29-5.45,4.64-10.43,6.14-15.85,1.36-4.9-3.25-11.9.19-15.59C468.23,150.07,470.31,153.75,471.81,156.67Z" transform="translate(-108.014 117.254)" fill="#252223"/>
    <path id="Path_70" data-name="Path 70" d="M360.9,486l53.29-73-8.42-86L524,317.24l-.44-17.34,26.18,57,79.48,77.61.55.8L648,426l-69.24-85.9-32.73-57-.08-.26a65.84,65.84,0,0,0-60.32-46.65c-7-.28-12.91-.8-15.34-1.71-7.48-2.81-3.74-30.86-3.74-30.86l-50.49,5.61s4.69,11.48,8.16,23.68a31.43,31.43,0,0,1-14.05,35.44c-15.4,9.3-46.41,25.39-42.26,41.39,6.55,25.25,13.56,84.62,13.56,84.62l-30.86,88.83" transform="translate(-108.014 117.254)" fill="#f0898b"/>
    <path id="Path_71" data-name="Path 71" d="M350.61,483.16s-42.08,40.21-24.31,40.21S360.9,486,360.9,486" transform="translate(-108.014 117.254)" fill="#fdb797"/>
    <path id="Path_72" data-name="Path 72" d="M648.88,427.06,648,426l-18.22,9.35c3.6,5.16,24,33.45,35.91,30.05C678.8,461.66,648.88,427.06,648.88,427.06Z" transform="translate(-108.014 117.254)" fill="#fdb797"/>
    <path id="Path_73" data-name="Path 73" d="M509.56,704.76s9.35,47.69-4.68,58.91-22.44,8.42-22.44,8.42V707.57Z" transform="translate(-108.014 117.254)" fill="#333"/>
    <path id="Path_74" data-name="Path 74" d="M333.2,514s-17.2,20.59-10.64,25.26,21.51,1.87,22.44,12.16,33.66,7.48,33.66,7.48,35.53,22.44,65.45,16.83,85.09-13.09,85.09-13.09l29.92-.94s24.31-12.16,29-10.29,22.44-14,15.9-25.25S333.2,514,333.2,514Z" transform="translate(-108.014 117.254)" fill="#f0898b"/>
    <path id="Path_75" data-name="Path 75" d="M333.2,514s-17.2,20.59-10.64,25.26,21.51,1.87,22.44,12.16,33.66,7.48,33.66,7.48,35.53,22.44,65.45,16.83,85.09-13.09,85.09-13.09l29.92-.94s24.31-12.16,29-10.29,22.44-14,15.9-25.25S333.2,514,333.2,514Z" transform="translate(-108.014 117.254)" opacity="0.2"/>
    <path id="Path_76" data-name="Path 76" d="M535.74,544.87,522.65,630s10.29,22.44-10.29,56.1l-3.74,18.7-25.25,2.81L474,518.69Z" transform="translate(-108.014 117.254)" fill="#fdb797"/>
    <path id="Path_77" data-name="Path 77" d="M417,532.72,443.18,600s4.68,28.05,2.81,33.66-4.68,59.84,5.61,76.67,24.31,80.41,24.31,80.41L504,788s-10.29-17.77-10.29-29V705.7s0-36.47-6.55-62.65l2.5-17.51a51.148,51.148,0,0,0-.48-17.26l-17-84.91Z" transform="translate(-108.014 117.254)" opacity="0.1"/>
    <path id="Path_78" data-name="Path 78" d="M415.13,532.72,441.31,600s4.68,28.05,2.81,33.66-4.68,59.84,5.61,76.67S474,790.78,474,790.78L502.08,788s-10.29-17.77-10.29-29V705.7s0-36.47-6.55-62.65l2.5-17.51a51.151,51.151,0,0,0-.48-17.26l-17-84.91Z" transform="translate(-108.014 117.254)" fill="#fdb797"/>
    <path id="Path_79" data-name="Path 79" d="M474,790.78s5.61,16.83,0,21.51-3.74,35.53-3.74,35.53,34.6,14,39.27-8.42c0,0-9.35-42.08-7.48-51.43Z" transform="translate(-108.014 117.254)" fill="#333"/>
    <path id="Path_80" data-name="Path 80" d="M453.46,315.79s45.82-31.79,70.13,0c0,0,5.61,39.27,0,46.75,0,0-4.68,30.86,2.81,35.53s13.09,19.64,13.09,19.64,27.12,12.16,30.86,20.57,43,92.57,43,92.57S561,558.9,542.29,556.09s-59.84,0-59.84,0S460,531.78,419.8,543s-93.5-17.77-93.5-17.77L408.58,414s14-18.7,7.48-40.21-7.48-50.49-7.48-50.49S411.39,300.83,453.46,315.79Z" transform="translate(-108.014 117.254)" opacity="0.1"/>
    <path id="Path_81" data-name="Path 81" d="M453.46,313.92s45.82-31.79,70.13,0c0,0,5.61,39.27,0,46.75,0,0-4.68,30.86,2.81,35.53s13.09,19.64,13.09,19.64S566.6,428,570.34,436.41s43,92.57,43,92.57S561,557,542.29,554.22s-59.84,0-59.84,0S460,529.91,419.8,541.13s-93.5-17.77-93.5-17.77L408.58,412.1s14-18.7,7.48-40.21-7.48-50.49-7.48-50.49S411.39,299,453.46,313.92Z" transform="translate(-108.014 117.254)" fill="#f0898b"/>
    <path id="Path_82" data-name="Path 82" d="M476.38,239.49s30.08-2.5,37.58,7.6" transform="translate(-108.014 117.254)" fill="#72351c" opacity="0.1"/>
    <path id="Path_83" data-name="Path 83" d="M398.05,282.82s21.82-20.85,34-17.7" transform="translate(-108.014 117.254)" fill="#72351c" opacity="0.1"/>
    <path id="Path_84" data-name="Path 84" d="M418.87,209.2s1.93,4.72,4.23,11.32a38.31,38.31,0,0,0,45.44,1.63,114.738,114.738,0,0,1,.82-18.57Z" transform="translate(-108.014 117.254)" fill="#72351c" opacity="0.1"/>
    <circle id="Ellipse_2" data-name="Ellipse 2" cx="38.34" cy="38.34" r="38.34" transform="translate(297.756 269.414)" fill="#fdb797"/>
    <path id="Path_85" data-name="Path 85" d="M483.58,159.36c-2-7-5.38-19.93-12.46-21.55a32.66,32.66,0,0,1-4.56-1c-2.88-1.11-4.85-3.73-7.23-5.69-5.27-4.35-14.33,1.14-21.13.44-6.39-.66-13.09-1.11-19,1.34-11.89,4.91-16.42,19.1-25,28.72-6.39,7.2-15.1,11.81-23.19,17S355,190.23,351.49,199.21c-2.45,6.35-2.39,13.38-1.81,20.17a140.79,140.79,0,0,0,15.62,53.23c2.49,4.73,5.27,9.39,6.5,14.59s.61,11.18-3,15.07c-5.16,5.49-13.94,4.88-20.92,7.74,5.76,5.89,14.34,8.49,22.56,8.14s16.14-3.42,23.29-7.52c18.41-10.57,32.36-28.18,40-48,3.53-9.21,5.77-19.32,3.62-28.94-1.85-8.27-6.75-15.46-10.87-22.86s-7.64-15.76-6.32-24.13c1.19-7.54,6.28-14.07,12.59-18.37,5.22-3.55,14.47-8.41,21-8.12C461.12,160.51,485.58,166.34,483.58,159.36Z" transform="translate(-108.014 117.254)" fill="#72351c" opacity="0.1"/>
    <path id="Path_86" data-name="Path 86" d="M482.64,158.43c-2-7-5.38-19.93-12.46-21.55a32.661,32.661,0,0,1-4.56-1c-2.88-1.11-4.85-3.73-7.23-5.69-5.27-4.35-14.33,1.14-21.13.44-6.39-.66-13.09-1.11-19,1.34-11.89,4.91-16.42,19.1-25,28.72-6.39,7.2-15.1,11.81-23.19,17S354,189.3,350.55,198.28c-2.45,6.35-2.39,13.38-1.81,20.17a140.79,140.79,0,0,0,15.62,53.23c2.49,4.73,5.27,9.39,6.5,14.59s.61,11.18-3,15.07c-5.16,5.49-13.94,4.88-20.92,7.74,5.76,5.89,14.34,8.49,22.56,8.14s16.14-3.42,23.29-7.52c18.41-10.57,32.36-28.18,40-48,3.53-9.21,5.77-19.32,3.62-28.94-1.85-8.27-6.75-15.46-10.87-22.86s-7.64-15.76-6.32-24.13c1.19-7.54,6.28-14.07,12.59-18.37,5.22-3.55,14.47-8.41,21-8.12C460.19,159.58,484.64,165.4,482.64,158.43Z" transform="translate(-108.014 117.254)" fill="#252223"/>
    <path id="Path_87" data-name="Path 87" d="M521.25,395.74s-17.77,11.22-38.34,9.35" transform="translate(-108.014 117.254)" fill="#72351c" opacity="0.1"/>
    <path id="Path_88" data-name="Path 88" d="M540,413.5s-45.82,17.77-63.58,15.9" transform="translate(-108.014 117.254)" fill="#72351c" opacity="0.1"/>
    <path id="Path_89" data-name="Path 89" d="M418.4,367.69s49.56,4.68,58-4.68c0,0,27.12,8.42,44.88,0" transform="translate(-108.014 117.254)" fill="#72351c" opacity="0.1"/>
    <path id="Path_90" data-name="Path 90" d="M300.3,366.93,249.92,431.6l-2.02,10.1Z" transform="translate(4.986 154.004)" fill="#72351c" opacity="0.1"/>
  </g>
</svg>
